<svg width="472" height="192" viewBox="0 0 118 48" fill="none" xmlns="http://www.w3.org/2000/svg">
<rect width="472" height="192" fill="#FF4D00"/>
<path d="M15 29.4831L33 29.4831L33 32L15 32L15 29.4831Z" fill="white"/>
<path d="M33 22.0231L33 27.4234L15 27.4234L15 21.852C15 20.2175 15.3604 18.8138 16.0811 17.6409C16.7959 16.468 17.8242 15.5693 19.166 14.9448C20.502 14.3149 22.1045 14 23.9736 14C25.8486 14 27.46 14.3177 28.8076 14.953C30.1553 15.5829 31.1924 16.4952 31.9189 17.6898C32.6396 18.8844 33 20.3288 33 22.0231ZM30.627 24.9065L30.627 22.1615C30.627 20.8909 30.3691 19.8347 29.8535 18.993C29.332 18.1514 28.5791 17.5215 27.5947 17.1033C26.6045 16.6852 25.3975 16.4762 23.9736 16.4762C22.5615 16.4762 21.3633 16.6852 20.3789 17.1033C19.3945 17.516 18.6475 18.1324 18.1377 18.9523C17.6279 19.7723 17.373 20.7904 17.373 22.0068L17.373 24.9065L30.627 24.9065Z" fill="white"/>
<path d="M45.1094 32H42.5469L48.3047 16H51.0938L56.8516 32H54.2891L49.7656 18.9062H49.6406L45.1094 32ZM45.5391 25.7344H53.8516V27.7656H45.5391V25.7344ZM57.4346 32V20H59.6924V21.9062H59.8174C60.0362 21.2604 60.4216 20.7526 60.9737 20.3828C61.531 20.0078 62.1612 19.8203 62.8643 19.8203C63.0101 19.8203 63.182 19.8255 63.3799 19.8359C63.583 19.8464 63.7419 19.8594 63.8565 19.875V22.1094C63.7627 22.0833 63.5961 22.0547 63.3565 22.0234C63.1169 21.987 62.8773 21.9687 62.6377 21.9687C62.0857 21.9687 61.5935 22.0859 61.1612 22.3203C60.7341 22.5495 60.3955 22.8698 60.1455 23.2812C59.8955 23.6875 59.7705 24.151 59.7705 24.6719V32H57.4346ZM68.963 32.2422C67.8015 32.2422 66.8015 31.9792 65.963 31.4531C65.1296 30.9219 64.489 30.1901 64.0411 29.2578C63.5932 28.3255 63.3692 27.2578 63.3692 26.0547C63.3692 24.8359 63.5984 23.7604 64.0567 22.8281C64.5151 21.8906 65.1609 21.1589 65.9942 20.6328C66.8276 20.1068 67.8093 19.8438 68.9395 19.8438C69.851 19.8438 70.6635 20.013 71.377 20.3516C72.0906 20.6849 72.6661 21.1536 73.1036 21.7578C73.5463 22.362 73.8093 23.0677 73.8927 23.875H71.6192C71.4942 23.3125 71.2078 22.8281 70.7598 22.4219C70.3171 22.0156 69.7234 21.8125 68.9786 21.8125C68.3276 21.8125 67.7572 21.9844 67.2677 22.3281C66.7833 22.6667 66.4057 23.151 66.1348 23.7812C65.864 24.4062 65.7286 25.1458 65.7286 26C65.7286 26.875 65.8614 27.6302 66.127 28.2656C66.3927 28.901 66.7677 29.3932 67.252 29.7422C67.7416 30.0911 68.3171 30.2656 68.9786 30.2656C69.4213 30.2656 69.8223 30.1849 70.1817 30.0234C70.5463 29.8568 70.851 29.6198 71.0958 29.3125C71.3458 29.0052 71.5203 28.6354 71.6192 28.2031H73.8927C73.8093 28.9792 73.5567 29.6719 73.1348 30.2812C72.713 30.8906 72.1479 31.3698 71.4395 31.7187C70.7364 32.0677 69.9109 32.2422 68.963 32.2422ZM77.1866 24.875V32H74.8507V16H77.1554V21.9531H77.3038C77.5851 21.3073 78.0148 20.7943 78.5929 20.4141C79.171 20.0339 79.9262 19.8438 80.8585 19.8438C81.6814 19.8438 82.4002 20.013 83.0148 20.3516C83.6346 20.6901 84.1137 21.1953 84.4523 21.8672C84.796 22.5339 84.9679 23.3672 84.9679 24.3672V32H82.632V24.6484C82.632 23.7682 82.4054 23.0859 81.9523 22.6016C81.4991 22.112 80.8689 21.8672 80.0616 21.8672C79.5096 21.8672 79.0148 21.9844 78.5773 22.2187C78.145 22.4531 77.8038 22.7969 77.5538 23.25C77.309 23.6979 77.1866 24.2396 77.1866 24.875Z" fill="white"/>
<path d="M89.1466 16V32H86.7326V16H89.1466ZM96.302 32H91.1223V16H96.466C98.0337 16 99.3801 16.3203 100.505 16.9609C101.63 17.5964 102.492 18.5104 103.091 19.7031C103.695 20.8906 103.997 22.3151 103.997 23.9766C103.997 25.6432 103.693 27.0755 103.083 28.2734C102.479 29.4714 101.604 30.3932 100.458 31.0391C99.3124 31.6797 97.927 32 96.302 32ZM93.5363 29.8906H96.1691C97.3879 29.8906 98.4009 29.6615 99.2082 29.2031C100.015 28.7396 100.62 28.0703 101.021 27.1953C101.422 26.3151 101.622 25.2422 101.622 23.9766C101.622 22.7214 101.422 21.6562 101.021 20.7812C100.625 19.9062 100.034 19.2422 99.2473 18.7891C98.4608 18.3359 97.4842 18.1094 96.3176 18.1094H93.5363V29.8906Z" fill="white" fill-opacity="0.64"/>
</svg>
