<svg width="1706" height="506" viewBox="0 0 1706 506" fill="none" xmlns="http://www.w3.org/2000/svg">
<g clip-path="url(#clip0_0_1)">
<path d="M889.81 141.54C891.18 149.19 897.86 154.89 905.9 154.89H968.71C977.94 154.89 985.39 147.43 985.39 138.4C985.39 129.37 977.93 121.72 968.71 121.72H905.9C900.21 121.72 894.71 120.93 889.41 119.36C877.83 116.02 867.62 109.15 859.97 100.12C854.87 93.84 850.74 86.58 848.59 78.53C847.02 73.23 846.04 67.73 846.04 61.85C846.04 34.76 864.49 11.6 889.42 4.33999C894.72 2.76999 900.21 1.98999 905.91 1.98999H968.72C1000.71 1.98999 1026.82 27.31 1028.59 58.71H985.02C983.65 51.06 976.78 45.36 968.73 45.36H905.92C896.89 45.36 889.43 52.82 889.43 61.85C889.43 70.88 896.89 78.53 905.92 78.53H968.73C987.18 78.53 1003.86 86.97 1014.86 100.12C1019.96 106.4 1023.89 113.86 1026.24 121.71C1027.81 127.01 1028.6 132.7 1028.6 138.39C1028.6 171.36 1001.71 198.26 968.73 198.26H905.92C900.23 198.26 894.73 197.47 889.43 195.9C865.48 189.03 847.62 167.24 846.25 141.53H889.82L889.81 141.54Z" fill="black"/>
<path d="M1073.8 45.36V1.98999H1247.51V45.36H1182.34V198.27H1138.96V45.36H1073.79H1073.8Z" fill="black"/>
<path d="M1302.79 1.44H1412.9C1448.82 1.44 1478.07 30.88 1478.07 66.6C1478.07 96.24 1458.25 121.36 1431.35 129.21L1478.07 197.71H1425.66L1380.71 131.95L1351.07 88.57H1412.9C1424.87 88.57 1434.88 78.56 1434.88 66.59C1434.88 54.62 1424.87 44.8 1412.9 44.8H1346.17V197.72H1302.79V1.44V1.44Z" fill="black"/>
<path d="M1610.56 1.98999C1662.57 1.98999 1705.36 44.58 1705.36 96.79V103.46C1705.36 155.67 1662.57 198.26 1610.56 198.26C1558.55 198.26 1515.95 155.67 1515.95 103.46V96.79C1515.95 44.58 1558.54 1.98999 1610.56 1.98999V1.98999ZM1610.56 45.37C1582.3 45.37 1559.33 68.53 1559.33 96.8V103.47C1559.33 131.73 1582.29 154.9 1610.56 154.9C1638.83 154.9 1661.99 131.74 1661.99 103.47V96.8C1661.99 68.54 1638.83 45.37 1610.56 45.37V45.37Z" fill="black"/>
<path d="M676.13 357.96L700.67 405.01L725.01 357.96L748.33 313.14L755.63 299.15H806.13L798.83 313.14L794.77 320.64L775.5 357.95L725.81 453.47L700.66 501.94L675.31 453.47L625.62 357.95L606.35 320.64L602.29 313.14L594.99 299.15H645.49L652.79 313.14L676.11 357.96H676.13Z" fill="black"/>
<path d="M1159.41 502.41C1143.35 502.41 1128.29 497.93 1115.21 490.2C1089.24 474.53 1071.6 445.42 1071.6 412.24V298.86H1115.21V412.24C1115.21 437.07 1135.23 457.43 1159.41 457.43C1183.59 457.43 1203.41 437.07 1203.41 412.24V298.86H1247.02V412.24C1247.02 445.42 1229.58 474.53 1203.41 490.2C1190.33 497.94 1175.26 502.41 1159.41 502.41Z" fill="black"/>
<path d="M1302.65 298.82H1343.55V463.29H1478.52V502.38H1302.65V298.82Z" fill="black"/>
<path d="M1521.3 343.38V298.39H1701.45V343.38H1633.87V501.95H1588.88V343.38H1521.3V343.38Z" fill="black"/>
<path d="M724.33 141.58L700.38 95.67L676.63 141.58L653.87 185.32L646.75 198.97H597.47L604.59 185.32L608.55 178L627.35 141.59L675.84 48.38L700.38 1.06L725.12 48.36L773.61 141.57L792.41 177.98L796.37 185.3L803.49 198.95H754.21L747.09 185.3L724.33 141.56V141.58Z" fill="black"/>
<path d="M960.66 444.17L936.03 396.94L911.6 444.17L888.19 489.16L880.86 503.2H830.17L837.5 489.16L841.57 481.63L860.91 444.18L910.78 348.3L936.02 299.65L961.46 348.3L1011.33 444.18L1030.67 481.63L1034.74 489.16L1042.07 503.2H991.38L984.05 489.16L960.64 444.17H960.66Z" fill="black"/>
<path d="M125.16 280.75L0 504.36H112.02L180.84 380.19L125.16 280.75Z" fill="black"/>
<path d="M298.52 281.71L282.94 309.58L112.04 0.740005H0.859985L283.84 505.1L353.7 380.28L298.52 281.71Z" fill="black"/>
<path d="M282.31 0L212.86 124.07L268.11 222.75L283.2 195.52L455.54 504.36H565.29L282.31 0Z" fill="black"/>
<path d="M441.11 224.12L566.15 0.740005H455.56L385.87 125.44L441.11 224.12Z" fill="black"/>
</g>
<defs>
<clipPath id="clip0_0_1">
<rect width="1705.37" height="505.1" fill="white"/>
</clipPath>
</defs>
</svg>
