<svg width="112" height="101" viewBox="0 0 112 101" fill="none" xmlns="http://www.w3.org/2000/svg">
<path fill-rule="evenodd" clip-rule="evenodd" d="M55.9916 0.758785C25.1928 0.758785 0 25.9575 0 56.7524V78.6951C8.76605 66.7592 18.77 56.8782 29.8832 48.8671V39.3625C29.8938 38.2979 29.9587 37.2652 30.0768 36.2566C32.9339 38.5369 35.7243 40.8521 38.4315 43.205C41.9555 41.0631 45.5754 39.0867 49.291 37.2729C43.6164 34.498 37.7172 32.0996 31.605 30.0603C35.9314 18.9007 45.9848 13.3402 56.0265 13.3518C66.0672 13.3625 76.0973 18.9433 80.3753 30.0622C46.3197 41.4193 18.8997 63.9263 0 100.759H34.8977C38.2263 85.6212 45.8076 72.5123 55.9916 60.6442C66.1747 72.5113 73.756 85.6212 77.0846 100.759H111.982C100.357 78.1047 85.509 60.8697 67.8772 48.3154C72.3033 44.1748 77.0091 40.1678 81.9104 36.2518C82.0304 37.3106 82.0846 38.2979 82.0982 39.3606V48.87C93.2103 56.8821 103.215 66.766 111.982 78.7038V56.7524C111.982 25.9526 86.7875 0.758785 55.9916 0.758785Z" fill="#FF4D00"/>
</svg>
