<svg width="428" height="100" viewBox="0 0 428 100" fill="none" xmlns="http://www.w3.org/2000/svg">
<path fill-rule="evenodd" clip-rule="evenodd" d="M55.3754 0C24.9156 0 0 24.9203 0 55.3756V77.0777C8.66967 65.2728 18.5641 55.5017 29.5538 47.5786V38.1785C29.5659 37.1248 29.629 36.1044 29.7453 35.1054C32.5715 37.3627 35.3311 39.6508 38.0089 41.9771C41.494 39.8602 45.0738 37.905 48.7487 36.1115C43.1352 33.3666 37.3018 30.9952 31.2569 28.9782C35.5364 17.9416 45.4781 12.4423 55.4087 12.4542C65.3392 12.4661 75.2603 17.9844 79.4918 28.9806C45.8088 40.2122 18.6923 62.4709 0 98.8988H34.5136C37.8053 83.928 45.3045 70.9624 55.3754 59.2265C65.4463 70.96 72.9435 83.928 76.2355 98.8988H110.749C99.2506 76.4926 84.5676 59.4477 67.1303 47.0316C71.5069 42.938 76.1618 38.9753 81.0093 35.1006C81.1282 36.1496 81.1805 37.1248 81.1948 38.1761V47.581C92.1838 55.504 102.079 65.28 110.749 77.0849V55.3756C110.749 24.9156 85.833 0 55.3754 0Z" fill="black"/>
<path d="M205.03 98.8987H189.791L183.821 80.0771H153.339L147.371 98.8987H132.129L155.266 29.1185H181.894L205.03 98.8987ZM168.579 32.0584L157.195 67.9582H179.965L168.579 32.0584ZM224.773 49.0438V62.0808C225.812 57.8588 227.71 54.4455 230.464 51.8434C233.219 49.2412 236.86 47.9401 241.389 47.9401V61.7145H237.81C233.34 61.7145 230.065 62.585 227.984 64.3309C225.905 66.0744 224.863 68.9977 224.863 73.0983V98.8987H210.815V49.0438H224.773ZM271.228 100C263.517 100 257.29 97.6143 252.545 92.8405C247.802 88.0643 245.43 81.7611 245.43 73.9261C245.43 66.1505 247.816 59.8782 252.592 55.1044C257.366 50.3282 263.579 47.9401 271.228 47.9401C277.779 47.9401 283.212 49.6384 287.527 53.0374C291.841 56.434 294.52 61.0722 295.559 66.9473H281.421C280.748 64.1311 279.57 61.85 277.886 60.1065C276.204 58.363 273.983 57.4901 271.228 57.4901C267.556 57.4901 264.726 58.9434 262.737 61.85C260.749 64.759 259.754 68.7836 259.754 73.9261C259.754 79.128 260.763 83.1835 262.782 86.0901C264.804 88.9991 267.618 90.4524 271.228 90.4524C276.678 90.4524 280.227 87.3603 281.88 81.1783H296.02C294.857 87.1771 292.027 91.813 287.527 95.0883C283.029 98.3636 277.596 100 271.228 100ZM334.032 47.9401C339.601 47.9401 343.763 49.7169 346.518 53.2658C349.272 56.817 350.649 61.5004 350.649 67.3136V98.8987H336.604V70.3439C336.604 61.9571 333.54 57.766 327.42 57.766C321.3 57.766 318.239 62.0189 318.239 70.5271V98.8987H304.191V29.1185H318.148V59.2336C320.903 51.7054 326.197 47.9401 334.032 47.9401ZM400.965 61.8048L427.684 98.8987H410.33L391.508 72.3634L372.684 98.8987H355.333L381.958 61.8976L358.18 29.1185H375.441L391.508 51.7982L407.576 29.1185H424.837L400.965 61.8048Z" fill="black"/>
</svg>
